<svg width="32" height="32" viewBox="0 0 32 32" fill="none" xmlns="http://www.w3.org/2000/svg">
<circle cx="16" cy="16" r="16" fill="#0A0A0A"/>
<path d="M16 11.2C16 10.9054 15.7612 10.6667 15.4667 10.6667H13.8667C12.6885 10.6667 11.7333 11.6218 11.7333 12.8V15.4667L9.8166 11.154C9.68488 10.8577 9.39098 10.6667 9.06666 10.6667H7.74193C7.5899 10.6667 7.46666 10.7899 7.46666 10.9419V18.1333C7.46666 18.7224 6.9891 19.2 6.39999 19.2H5.86666C5.57211 19.2 5.33333 19.4388 5.33333 19.7333V20.8C5.33333 21.0945 5.57211 21.3333 5.86666 21.3333H7.46666C8.64487 21.3333 9.6 20.3782 9.6 19.2V15.4667L11.5511 20.8321C11.6605 21.133 11.9465 21.3333 12.2667 21.3333H13.5914C13.7434 21.3333 13.8667 21.2101 13.8667 21.0581V13.8667C13.8667 13.2776 14.3442 12.8 14.9333 12.8H15.4667C15.7612 12.8 16 12.5612 16 12.2667V11.2Z" fill="#61D89F"/>
<path d="M17.0667 12.2667C17.0667 12.5612 17.3054 12.8 17.6 12.8C18.1891 12.8 18.6667 13.2776 18.6667 13.8667V21.0581C18.6667 21.2101 18.7899 21.3333 18.9419 21.3333H19.9565C20.4689 21.3333 20.9327 21.03 21.1381 20.5605L24.3196 13.2886C24.4494 12.9918 24.7427 12.8 25.0667 12.8H26.6667C26.9612 12.8 27.2 12.5612 27.2 12.2667V11.2C27.2 10.9054 26.9612 10.6667 26.6667 10.6667H23.4667C23.1423 10.6667 22.8484 10.8577 22.7167 11.154L20.8 15.4667V12.8C20.8 11.6218 19.8449 10.6667 18.6667 10.6667H17.6C17.3054 10.6667 17.0667 10.9054 17.0667 11.2V12.2667Z" fill="#61D89F"/>
<path d="M32 16C32 24.8366 24.8366 32 16 32C7.16344 32 0 24.8366 0 16C0 7.16344 7.16344 0 16 0C24.8366 0 32 7.16344 32 16ZM2.84628 16C2.84628 23.2646 8.7354 29.1537 16 29.1537C23.2646 29.1537 29.1537 23.2646 29.1537 16C29.1537 8.7354 23.2646 2.84628 16 2.84628C8.7354 2.84628 2.84628 8.7354 2.84628 16Z" fill="#61D89F"/>
</svg>
